<svg xmlns="http://www.w3.org/2000/svg" version="1.1" xmlns:xlink="http://www.w3.org/1999/xlink" width="512" height="512" x="0" y="0" viewBox="0 0 479.998 479.998" style="enable-background:new 0 0 512 512" xml:space="preserve" class=""><g><path d="M364 0H44C21.92.026 4.026 17.92 4 40v256c-.002 18.245 12.342 34.178 30.008 38.736l4-15.488A24 24 0 0 1 20 296V40c0-13.255 10.745-24 24-24h320c13.255 0 24 10.745 24 24v8h16v-8c-.026-22.08-17.92-39.974-40-40z" fill="#7b68ee" opacity="1" data-original="#000000" class=""></path><path d="M36 32h16v16H36zM68 32h16v16H68zM100 32h16v16h-16zM473.656 442.344l-75.88-75.88A110.645 110.645 0 0 0 407.28 344H420v-16h-9.28a107.791 107.791 0 0 0-6.72-57.328V192h-16v50.944a112.6 112.6 0 0 0-16-16.608V160h-16v55.152a111.263 111.263 0 0 0-16-7.64V128h-16v74.656a110.774 110.774 0 0 0-16-2.248V144h-16v56.408a110.774 110.774 0 0 0-16 2.248V176h-16v31.512a111.314 111.314 0 0 0-16 7.64V168h-16v58.336a112.6 112.6 0 0 0-16 16.608V184h-16v86.672A107.791 107.791 0 0 0 189.28 328H84v16h108.72c17.546 59.182 79.746 92.934 138.927 75.388a111.8 111.8 0 0 0 32.625-15.804l74.072 74.072a8 8 0 0 0 11.312 0l24-24a8 8 0 0 0 0-11.312zM300 408c-52.996-.057-95.943-43.004-96-96 0-53.019 42.981-96 96-96s96 42.981 96 96-42.981 96-96 96zm144 52.688-67.296-67.296c4.36-4.12 8.386-8.579 12.04-13.336L456.688 448 444 460.688z" fill="#7b68ee" opacity="1" data-original="#000000" class=""></path><path d="M300 232c-44.183 0-80 35.817-80 80s35.817 80 80 80 80-35.817 80-80c-.048-44.163-35.837-79.952-80-80zm0 144a64 64 0 0 1-55.344-32h110.688A64 64 0 0 1 300 376zm-61.896-48c-6.437-24.36 2.158-50.22 21.896-65.88V312h16v-59.288a63.706 63.706 0 0 1 16-4.16V312h16v-63.448a63.706 63.706 0 0 1 16 4.16V312h16v-49.88c19.738 15.66 28.333 41.52 21.896 65.88H238.104z" fill="#7b68ee" opacity="1" data-original="#000000" class=""></path><path d="M412 64H92c-22.08.026-39.974 17.92-40 40v256c.026 22.08 17.92 39.974 40 40h104v-16H92c-13.255 0-24-10.745-24-24V104c0-13.255 10.745-24 24-24h320c13.255 0 24 10.745 24 24v256a24.002 24.002 0 0 1-6 15.872l12 10.584A39.95 39.95 0 0 0 452 360V104c-.026-22.08-17.92-39.974-40-40z" fill="#7b68ee" opacity="1" data-original="#000000" class=""></path><path d="M84 96h16v16H84zM116 96h16v16h-16zM148 96h16v16h-16zM100 264h16v48h-16zM132 216h16v96h-16zM164 240h16v72h-16z" fill="#7b68ee" opacity="1" data-original="#000000" class=""></path></g></svg>