<svg xmlns="http://www.w3.org/2000/svg" version="1.1" xmlns:xlink="http://www.w3.org/1999/xlink" width="512" height="512" x="0" y="0" viewBox="0 0 510 510" style="enable-background:new 0 0 512 512" xml:space="preserve" fill-rule="evenodd" class=""><g><g fill="#a4d4ff"><path d="M459.116 185.605h3.587c16.345 0 29.691 13.346 29.691 29.692v250.011c0 16.346-13.346 29.692-29.691 29.692H47.297c-16.345 0-29.691-13.346-29.691-29.692V215.297c0-8.381 3.508-15.973 9.13-21.382L194.188 340.12l57.786 50.412 59.327-51.141L479.863 194.1c-5.355-5.243-12.673-8.495-20.747-8.495z" fill="#a4d4ff" opacity="1" data-original="#a4d4ff" class=""></path><path d="m195.986 341.688 55.988 48.844 59.301-51.118 3.613-.023 169.151 146.525c-5.383 5.579-12.953 9.084-21.336 9.084H47.297c-7.065 0-13.57-2.495-18.701-6.645zM252.394 243.768c-41.108-12.866-86.863-56.677-86.863-101.702V66.208c22.174-4.041 43.039-13.501 61.724-26.16h50.292c18.672 12.659 39.536 22.119 61.711 26.16v75.858c0 45.039-45.756 88.836-86.864 101.702zm44.213-111.42a5.001 5.001 0 0 0-5-5h-78.425a5.004 5.004 0 0 0-3.536 1.464 5.004 5.004 0 0 0-1.464 3.536v32.675c0 9.3 3.932 18.219 10.93 24.795 6.999 6.576 16.491 10.271 26.389 10.271h13.787c9.898 0 19.39-3.695 26.389-10.271 6.998-6.576 10.93-15.495 10.93-24.795z" fill="#a4d4ff" opacity="1" data-original="#a4d4ff" class=""></path><circle cx="255" cy="163.718" r="15.425" fill="#a4d4ff" opacity="1" data-original="#a4d4ff" class=""></circle></g><path fill="#1f4571" d="M23.811 493.464c-8.066-6.74-13.205-16.871-13.205-28.156V215.297a36.494 36.494 0 0 1 7.381-22.033c-.046-.346 3.075-4.131 4.675-5.434 6.337-5.16 12.253-9.225 21.049-9.225h97.836c-4.281-11.648-6.704-23.9-6.704-36.524V45.489a7 7 0 0 1 6.447-6.978c29.517-2.34 55.214-15.324 74.654-29.207A6.998 6.998 0 0 1 220.012 8h64.765c1.459 0 2.881.456 4.068 1.304 19.439 13.883 45.136 26.867 74.654 29.207a7 7 0 0 1 6.447 6.978v96.592c0 12.624-2.423 24.876-6.703 36.524h99.46c20.199 0 36.691 16.492 36.691 36.692v250.011c0 9.871-3.933 18.859-10.317 25.468l-.004.004c-6.587 6.826-15.825 11.134-26.063 11.219l-.302.001H47.297c-3.902 0-7.666-.616-11.201-1.754-4.373-1.408-12.162-6.667-12.285-6.782zm3.829-289.467a22.492 22.492 0 0 0-3.034 11.3v250.011c0 4.998 1.636 9.627 4.397 13.384l156.349-136.994zm120.066-11.392H47.297c-3.265 0-6.372.698-9.182 1.952l213.886 186.709 216.502-186.615a22.453 22.453 0 0 0-9.387-2.046H357.085c-6.861 13.36-16.071 25.71-26.649 36.65-22.673 23.447-51.555 40.351-76.228 46.968a6.993 6.993 0 0 1-3.627 0c-24.666-6.617-53.548-23.521-76.222-46.967-10.58-10.94-19.791-23.291-26.653-36.651zm335.177 283.048a22.479 22.479 0 0 0 2.511-10.345V215.297c0-4.876-1.553-9.403-4.191-13.11L323.806 337.855zm-442.15 11.375c2.08.632 4.284.972 6.564.972l415.597-.001a22.48 22.48 0 0 0 10.033-2.448L313.088 347.093l-56.544 48.741a7 7 0 0 1-9.172-.027l-51.376-44.821zm108.11-435.229v90.282c0 29.359 15.111 56.276 35.58 77.442 20.229 20.919 45.775 36.276 67.972 42.673 22.203-6.396 47.748-21.754 67.976-42.673 20.468-21.166 35.575-48.083 35.575-77.442V51.799C327.278 48.135 302.127 35.656 282.555 22h-60.321c-19.572 13.656-44.723 26.134-73.391 29.799zm101.461 198.649c-25.948-8.121-53.686-27.92-71.7-52.724-12.316-16.958-20.073-36.228-20.073-55.658V66.208a7 7 0 0 1 5.745-6.887c21.22-3.867 41.172-12.954 59.053-25.068a7 7 0 0 1 3.926-1.205h50.292c1.401 0 2.769.42 3.929 1.206 17.867 12.114 37.818 21.201 59.037 25.067a7 7 0 0 1 5.745 6.887v75.858c0 19.436-7.758 38.707-20.073 55.664-18.015 24.803-45.752 44.597-71.7 52.718a6.999 6.999 0 0 1-4.181 0zm2.09-14.042c22.768-7.707 46.713-25.217 62.463-46.903 10.516-14.479 17.401-30.841 17.401-47.437V71.927c-20.291-4.55-39.457-13.364-56.839-24.879h-46.036c-17.394 11.515-36.562 20.329-56.852 24.879v70.139c0 16.591 6.884 32.951 17.401 47.431 15.75 21.687 39.695 39.202 62.462 46.909zm40.101-116.058h4.112a7 7 0 0 1 7 7v37.675c0 11.207-4.703 21.971-13.137 29.896-8.273 7.774-19.482 12.17-31.182 12.17h-13.787c-11.7 0-22.909-4.396-31.182-12.17-8.434-7.925-13.137-18.689-13.137-29.896v-37.675a7 7 0 0 1 7-7h4.112v-8.788c0-9.09 3.696-17.813 10.301-24.241 6.536-6.36 15.395-9.946 24.638-9.946h10.323c9.243 0 18.102 3.586 24.637 9.946 6.606 6.428 10.302 15.151 10.302 24.241zm-2.888 14h-74.425v30.675c0 7.392 3.16 14.466 8.724 19.694 5.724 5.379 13.499 8.372 21.595 8.372h13.787c8.096 0 15.871-2.993 21.595-8.372 5.563-5.228 8.724-12.302 8.724-19.694zm-11.112-14v-8.788c0-5.331-2.191-10.438-6.065-14.207-3.944-3.837-9.298-5.98-14.874-5.98h-10.323c-5.577 0-10.931 2.143-14.874 5.98-3.874 3.769-6.065 8.876-6.065 14.207v8.788zm-26.101 25.141c10.061 0 18.23 8.168 18.23 18.229s-8.169 18.229-18.23 18.229-18.229-8.168-18.229-18.229 8.168-18.229 18.229-18.229zm0 14c-2.334 0-4.229 1.895-4.229 4.229s1.895 4.229 4.229 4.229 4.23-1.895 4.23-4.229-1.896-4.229-4.23-4.229z" opacity="1" data-original="#1f4571" class=""></path></g></svg>