<svg xmlns="http://www.w3.org/2000/svg" version="1.1" xmlns:xlink="http://www.w3.org/1999/xlink" width="512" height="512" x="0" y="0" viewBox="0 0 510 510" style="enable-background:new 0 0 512 512" xml:space="preserve" fill-rule="evenodd" class=""><g><path fill="#a4d4ff" d="M238.562 185.23v39.086c0 9.649-4.079 18.902-11.34 25.724-7.261 6.823-17.109 10.656-27.377 10.656h-14.304c-10.269 0-20.117-3.833-27.378-10.656-7.26-6.822-11.339-16.075-11.339-25.724V185.23zm-45.869 22.308c-8.514 0-15.425 6.911-15.425 15.425 0 8.513 6.911 15.425 15.425 15.425 8.513 0 15.425-6.912 15.425-15.425 0-8.514-6.912-15.425-15.425-15.425zM322.671 255c32.698 0 59.203 26.505 59.203 59.203 0 32.699-26.505 59.204-59.203 59.204-23.93 0-44.548-14.196-53.877-34.638h-23.592l-15.299 15.161-15.652-18.656-14.571 16.824-14.095-13.329h-13.69l-25.071-24.566 25.071-24.566h96.899C278.123 269.195 298.741 255 322.671 255zm23.309 46.809c-7.88 0-14.272 5.55-14.265 12.394-.007 6.845 6.385 12.394 14.265 12.394 7.879 0 14.271-5.549 14.264-12.394.007-6.844-6.385-12.394-14.264-12.394z" opacity="1" data-original="#a4d4ff"></path><path fill="#1f4571" d="M88.601 163.449H15c-3.863 0-7-3.137-7-7 0-3.864 3.137-7 7-7h73.601v-14.512c0-17.154 13.906-31.061 31.06-31.061h29.788V15c0-3.863 3.136-7 7-7 3.863 0 7 3.137 7 7v88.876h51.701V15c0-3.863 3.136-7 7-7 3.863 0 7 3.137 7 7v88.876h51.7V15c0-3.863 3.137-7 7-7 3.864 0 7 3.137 7 7v88.876h51.701V15c0-3.863 3.137-7 7-7 3.864 0 7 3.137 7 7v88.876h29.788c17.154 0 31.06 13.907 31.06 31.061v14.512H495c3.863 0 7 3.136 7 7 0 3.863-3.137 7-7 7h-73.601v51.701H495c3.863 0 7 3.136 7 7 0 3.863-3.137 7-7 7h-73.601v51.7H495c3.863 0 7 3.137 7 7 0 3.864-3.137 7-7 7h-73.601v51.701H495c3.863 0 7 3.137 7 7 0 3.864-3.137 7-7 7h-73.601v14.512c0 17.154-13.906 31.061-31.06 31.061h-29.788V495c0 3.863-3.136 7-7 7-3.863 0-7-3.137-7-7v-88.876H294.85V495c0 3.863-3.136 7-7 7-3.863 0-7-3.137-7-7v-88.876h-51.7V495c0 3.863-3.137 7-7 7-3.864 0-7-3.137-7-7v-88.876h-51.701V495c0 3.863-3.137 7-7 7-3.864 0-7-3.137-7-7v-88.876h-29.788c-17.154 0-31.06-13.907-31.06-31.061v-14.512H15c-3.863 0-7-3.136-7-7 0-3.863 3.137-7 7-7h73.601V294.85H15c-3.863 0-7-3.136-7-7 0-3.863 3.137-7 7-7h73.601v-51.7H15c-3.863 0-7-3.137-7-7 0-3.864 3.137-7 7-7h73.601zm301.738-45.573H119.661c-9.422 0-17.06 7.638-17.06 17.061v240.126c0 9.423 7.638 17.061 17.06 17.061h270.678c9.422 0 17.06-7.638 17.06-17.061V134.937c0-9.423-7.638-17.061-17.06-17.061zM322.671 248c36.564 0 66.203 29.639 66.203 66.203 0 36.565-29.639 66.204-66.203 66.204-25.13 0-46.994-14-58.202-34.638h-16.386l-13.253 13.133a6.998 6.998 0 0 1-10.29-.473l-10.373-12.365-9.195 10.617a6.998 6.998 0 0 1-10.101.504l-12.072-11.416h-10.904a7 7 0 0 1-4.899-2l-25.072-24.566a7 7 0 0 1 0-10l25.072-24.565a7.002 7.002 0 0 1 4.899-2.001l92.574.001C275.677 262 297.541 248 322.671 248zm0 14c-21.102 0-39.283 12.518-47.508 30.543a7 7 0 0 1-6.369 4.094h-94.041l-17.928 17.566 17.928 17.566h10.832c1.789 0 3.51.685 4.809 1.914l8.782 8.305 9.784-11.297a7.002 7.002 0 0 1 10.654.084l10.764 12.83 9.897-9.808a7 7 0 0 1 4.927-2.028h23.592a7 7 0 0 1 6.369 4.094c8.225 18.026 26.406 30.544 47.508 30.544 28.832 0 52.203-23.372 52.203-52.204S351.503 262 322.671 262zm23.309 32.809c11.999 0 21.271 8.971 21.264 19.394.007 10.424-9.265 19.394-21.264 19.394-12 0-21.272-8.97-21.265-19.394-.007-10.423 9.265-19.394 21.265-19.394zm0 14c-3.771 0-7.268 2.111-7.265 5.394v.008c-.003 3.276 3.494 5.386 7.265 5.386 3.77 0 7.267-2.11 7.264-5.394v-.007c.003-3.276-3.494-5.387-7.264-5.387zM234.033 178.23h4.529a7 7 0 0 1 7 7v39.086c0 11.556-4.85 22.654-13.547 30.826-8.535 8.02-20.1 12.554-32.17 12.554h-14.304c-12.071 0-23.636-4.534-32.171-12.554-8.696-8.172-13.546-19.27-13.546-30.826V185.23a7 7 0 0 1 7-7h4.528v-9.38c0-5.44 1.286-10.752 3.699-15.547a35.233 35.233 0 0 1 6.909-9.414c6.732-6.551 15.858-10.244 25.378-10.244h10.709c9.521 0 18.646 3.693 25.378 10.244a35.25 35.25 0 0 1 6.91 9.414 34.576 34.576 0 0 1 3.698 15.547zm-2.471 14h-77.738v32.086c0 7.741 3.307 15.149 9.133 20.623 5.986 5.625 14.117 8.757 22.584 8.757h14.304c8.466 0 16.597-3.132 22.584-8.757 5.825-5.474 9.133-12.882 9.133-20.623zm-11.529-14v-9.38c0-3.239-.769-6.4-2.205-9.256a21.194 21.194 0 0 0-4.166-5.671c-4.14-4.029-9.76-6.278-15.615-6.278h-10.709c-5.854 0-11.475 2.249-15.614 6.278a21.227 21.227 0 0 0-4.167 5.671 20.592 20.592 0 0 0-2.205 9.256v9.38zm-27.34 26.083c10.293 0 18.65 8.357 18.65 18.65s-8.357 18.65-18.65 18.65-18.65-8.357-18.65-18.65 8.357-18.65 18.65-18.65zm0 14a4.651 4.651 0 0 0-4.65 4.65 4.652 4.652 0 0 0 4.65 4.65 4.653 4.653 0 0 0 4.65-4.65 4.652 4.652 0 0 0-4.65-4.65z" opacity="1" data-original="#1f4571"></path></g></svg>