<svg xmlns="http://www.w3.org/2000/svg" version="1.1" xmlns:xlink="http://www.w3.org/1999/xlink" width="512" height="512" x="0" y="0" viewBox="0 0 510 510" style="enable-background:new 0 0 512 512" xml:space="preserve" fill-rule="evenodd" class=""><g><path fill="#a4d4ff" d="M425.559 36.294c0-12.193-9.884-22.078-22.078-22.078H37.078C24.885 14.216 15 24.101 15 36.294v54.738h410.559zM390.05 469.767c38.37-12.009 81.076-52.888 81.076-94.926v-70.804c-20.697-3.772-40.171-12.601-57.598-24.417h-46.942c-17.44 11.816-36.915 20.645-57.612 24.417v70.804c0 42.025 42.707 82.917 81.076 94.926z" opacity="1" data-original="#a4d4ff"></path><g fill="#a4d4ff"><path d="M156.139 299.403c24.879 0 45.182-20.303 45.182-45.182 0-24.89-20.303-45.181-45.182-45.181-24.89 0-45.182 20.291-45.182 45.181 0 24.879 20.292 45.182 45.182 45.182zM322.94 203.344c-12.005 0-18.033 14.547-9.542 23.038a4.012 4.012 0 0 1 0 5.668l-8.62 8.62a4.012 4.012 0 0 1-5.668 0c-8.49-8.491-23.037-2.463-23.037 9.542a4 4 0 0 1-4.005 4.004h-12.192a4 4 0 0 1-4.004-4.004c0-12.02-14.54-18.04-23.038-9.542a4.002 4.002 0 0 1-5.66 0l-8.627-8.62a4.012 4.012 0 0 1 0-5.668c8.49-8.491 2.47-23.038-9.542-23.038A4.005 4.005 0 0 1 205 199.34v-12.192a4.005 4.005 0 0 1 4.005-4.004c12.012 0 18.032-14.547 9.542-23.038a4.002 4.002 0 0 1 0-5.66l8.627-8.628a4.004 4.004 0 0 1 5.66 0c8.491 8.491 23.038 2.47 23.038-9.542a4.004 4.004 0 0 1 4.004-4.004h12.192a4.005 4.005 0 0 1 4.005 4.004c0 12.012 14.547 18.033 23.037 9.542a4.014 4.014 0 0 1 5.668 0l8.62 8.628a4.002 4.002 0 0 1 0 5.66c-8.491 8.491-2.463 23.038 9.542 23.038a4 4 0 0 1 4.004 4.004v12.192a4 4 0 0 1-4.004 4.004zm-56.964 19.2c16.131 0 29.296-13.165 29.296-29.296 0-16.139-13.165-29.296-29.296-29.296-16.139 0-29.296 13.157-29.296 29.296 0 16.131 13.157 29.296 29.296 29.296z" fill="#a4d4ff" opacity="1" data-original="#a4d4ff"></path></g><path fill="#1f4571" d="M8 364.946V36.287C8.004 20.233 21.017 7.22 37.071 7.216H403.488c16.054.004 29.067 13.017 29.071 29.071v217.44c17.283 11.049 38.781 20.535 62.994 22.455A7 7 0 0 1 502 283.16v91.697c0 31.393-15.723 60.372-37.608 83.004-21.571 22.308-49.053 38.388-72.528 44.684a6.993 6.993 0 0 1-3.627 0c-23.468-6.296-50.95-22.375-72.523-44.683-17.347-17.938-30.824-39.863-35.669-63.816H37.1c-16.071 0-29.1-13.028-29.1-29.1zM418.559 84.033V36.294c-.012-8.322-6.756-15.066-15.078-15.078H37.078c-8.322.012-15.066 6.756-15.078 15.078v47.738l396.559.001zm0 163.183V98.032H22v266.914c0 8.34 6.76 15.1 15.1 15.1h241.144a94.164 94.164 0 0 1-.143-5.189V283.16a7 7 0 0 1 6.447-6.978c27.952-2.216 52.284-14.516 70.692-27.662a7.003 7.003 0 0 1 4.069-1.304zm-125.65 139.107c3.276 23.303 16.199 44.568 32.869 61.806 19.129 19.78 43.274 34.314 64.273 40.388 21.004-6.074 45.15-20.607 64.277-40.388C473.694 428.102 488 402.637 488 374.857v-85.394c-27.103-3.532-50.89-15.328-69.428-28.247H361.53c-18.539 12.919-42.326 24.715-69.429 28.247v85.394a82.3 82.3 0 0 0 .742 10.99c.027.157.049.316.066.476zm89.346-345.239c6.374 0 11.548 5.175 11.548 11.549 0 6.373-5.174 11.548-11.548 11.548s-11.549-5.175-11.549-11.548c0-6.374 5.175-11.549 11.549-11.549zm-33.876 0c6.373 0 11.548 5.175 11.548 11.549 0 6.373-5.175 11.548-11.548 11.548-6.374 0-11.549-5.175-11.549-11.548 0-6.374 5.175-11.549 11.549-11.549zm-33.876 0c6.373 0 11.548 5.175 11.548 11.549 0 6.373-5.175 11.548-11.548 11.548-6.374 0-11.549-5.175-11.549-11.548 0-6.374 5.175-11.549 11.549-11.549zm-57.335 219.797v2.737c0 7.275-5.877 13.175-13.176 13.175-12.287 0-18.457 14.89-9.766 23.581 5.14 5.139 5.14 13.5 0 18.64l-13.295 13.295c-5.14 5.139-13.501 5.139-18.64 0-8.691-8.691-23.581-2.521-23.581 9.766 0 7.299-5.9 13.176-13.175 13.176h-18.804c-7.275 0-13.175-5.877-13.175-13.176 0-12.302-14.883-18.464-23.581-9.766-5.143 5.143-13.486 5.143-18.627.002L78.04 319.014c-5.139-5.14-5.139-13.501 0-18.64 8.691-8.691 2.529-23.581-9.766-23.581-7.275 0-13.176-5.9-13.176-13.175v-18.804c0-7.275 5.901-13.175 13.176-13.175 12.295 0 18.457-14.89 9.766-23.581-5.143-5.143-5.143-13.486 0-18.629l13.306-13.306c5.143-5.143 13.486-5.143 18.629 0 8.691 8.691 23.581 2.529 23.581-9.766 0-7.275 5.9-13.176 13.175-13.176h18.804c7.275 0 13.175 5.901 13.175 13.176 0 12.295 14.89 18.457 23.581 9.766 3.376-3.376 8.141-4.534 12.471-3.475 1.211-2.343 1.036-5.391-1.165-7.592-4.296-4.296-4.296-11.264 0-15.56l8.627-8.627c4.296-4.296 11.264-4.296 15.56 0 4.087 4.086 11.088 1.189 11.088-4.593 0-6.076 4.928-11.004 11.004-11.004h12.192c6.076 0 11.005 4.928 11.005 11.004 0 5.782 7.001 8.679 11.087 4.593 4.293-4.293 11.275-4.293 15.568 0l8.62 8.627c4.296 4.296 4.296 11.264 0 15.56-4.087 4.086-1.186 11.088 4.592 11.088a10.993 10.993 0 0 1 11.004 11.004v12.192a10.993 10.993 0 0 1-11.004 11.004c-5.778 0-8.679 7.002-4.592 11.088 4.292 4.293 4.292 11.275 0 15.567l-8.62 8.621c-4.293 4.292-11.275 4.292-15.568 0-4.086-4.087-11.087-1.186-11.087 4.592a10.994 10.994 0 0 1-11.005 11.004h-12.192c-.934 0-1.842-.116-2.708-.335zM198 193.701c-15.753 3.097-32.781-8.197-33.279-26.52h-17.176c-.65 23.931-29.501 35.873-46.876 19.419l-12.152 12.152c16.454 17.375 4.513 46.226-19.419 46.876v17.176c23.934.65 35.876 29.507 19.414 46.882l12.156 12.147c17.39-16.47 46.228-4.528 46.877 19.418h17.176c.65-23.92 29.507-35.875 46.882-19.413l12.152-12.152c-16.462-17.375-4.507-46.232 19.413-46.882v-17.177a28.464 28.464 0 0 1-4.793-.535c-.202.161-.4.337-.591.528-4.296 4.295-11.264 4.295-15.558.002l-8.629-8.623c-4.292-4.292-4.292-11.274 0-15.567 4.086-4.086 1.189-11.088-4.592-11.088-6.076 0-11.005-4.928-11.005-11.004zm14-3.762v6.61c15.241 2.122 22.743 20.248 13.468 32.521l4.68 4.676c12.281-9.283 30.4-1.78 32.52 13.47h6.61c2.123-15.232 20.249-22.741 32.521-13.467l4.678-4.678c-9.274-12.272-1.765-30.399 13.467-32.522v-6.61c-15.23-2.123-22.74-20.246-13.469-32.519l-4.677-4.68c-12.272 9.274-30.399 1.772-32.521-13.468h-6.61c-2.121 15.239-20.245 22.741-32.518 13.47l-4.678 4.679c9.27 12.273 1.768 30.396-13.471 32.518zm53.976 39.605c-19.995 0-36.296-16.31-36.296-36.296 0-19.995 16.301-36.296 36.296-36.296 19.986 0 36.296 16.301 36.296 36.296 0 19.986-16.31 36.296-36.296 36.296zm0-14c12.277 0 22.296-10.019 22.296-22.296 0-12.283-10.019-22.296-22.296-22.296-12.283 0-22.296 10.013-22.296 22.296 0 12.277 10.013 22.296 22.296 22.296zm-109.837 90.859c-28.747 0-52.182-23.448-52.182-52.182 0-28.746 23.435-52.181 52.182-52.181 28.733 0 52.182 23.435 52.182 52.181 0 28.734-23.449 52.182-52.182 52.182zm0-14c21.024 0 38.182-17.157 38.182-38.182 0-21.033-17.158-38.181-38.182-38.181-21.034 0-38.182 17.148-38.182 38.181 0 21.025 17.148 38.182 38.182 38.182zm210.447-19.783h46.942c1.4 0 2.768.42 3.928 1.206 16.623 11.27 35.184 19.727 54.925 23.324a7 7 0 0 1 5.745 6.887v70.804c0 18.235-7.269 36.32-18.824 52.229-16.874 23.232-42.857 41.77-67.161 49.377a6.999 6.999 0 0 1-4.181 0c-24.305-7.607-50.288-26.149-67.161-49.382-11.555-15.911-18.825-33.994-18.825-52.224v-70.804a7 7 0 0 1 5.746-6.887c19.742-3.597 38.304-12.054 54.94-23.325a6.992 6.992 0 0 1 3.926-1.205zm16.483 14h-14.357c-16.147 10.673-33.924 18.856-52.738 23.127v5.157h67.095zm-67.095 42.284v23.295h27.901v-23.295zm0 37.295v8.642c0 4.923.655 9.824 1.864 14.653h65.231v-23.295zm6.954 37.295c2.519 5.297 5.635 10.437 9.199 15.344a116.014 116.014 0 0 0 6.333 7.95h5.415v-23.294zm29.812 37.294c9.458 7.942 19.908 14.456 30.329 18.927v-18.927zm44.329 18.911c10.41-4.471 20.848-10.978 30.296-18.911h-30.296zm44.576-32.911a115.93 115.93 0 0 0 6.329-7.945c3.565-4.908 6.682-10.05 9.201-15.349h-20.912v23.294zm20.618-37.294c1.209-4.829 1.863-9.729 1.863-14.653v-8.642h-67.057v23.295zm1.863-37.295v-23.295h-27.863v23.295zm0-37.295v-5.156c-18.813-4.272-36.59-12.456-52.726-23.128h-14.331v28.284zm-106.251 37.295h64.388v-23.295h-64.388zm0 51.295v23.294h64.388v-23.294z" opacity="1" data-original="#1f4571" class=""></path></g></svg>