<svg xmlns="http://www.w3.org/2000/svg" version="1.1" xmlns:xlink="http://www.w3.org/1999/xlink" width="512" height="512" x="0" y="0" viewBox="0 0 510 510" style="enable-background:new 0 0 512 512" xml:space="preserve" fill-rule="evenodd" class=""><g><path fill="#a4d4ff" d="M487.389 42.709v54.738H76.83V42.709c0-12.194 9.885-22.078 22.078-22.078h366.403c12.194 0 22.078 9.884 22.078 22.078zM54.662 432.661c-22.578-9.082-37.463-22.129-30.192-49.284 3.475-12.948 12.576-44.55 18.88-57.143 7.558-15.131 28.097-20.296 30.35-20.823-6.429-10.022-10.37-21.999-10.37-37.645 0-40.428 43.516-91.994 71.642-91.994 28.111 0 71.627 51.566 71.627 91.994 0 16.312-3.313 28.306-8.944 37.993 5.245 1.433 22.262 7.005 29.004 20.475 6.288 12.593 15.405 44.195 18.865 57.143 7.285 27.153-7.597 40.2-30.186 49.282v-43.907a7.233 7.233 0 0 0-7.234-7.233H61.896a7.233 7.233 0 0 0-7.234 7.233zm39.673-176.404a42.187 42.187 0 0 0-1.504 11.202c0 16.656 9.672 31.066 23.71 37.907a41.976 41.976 0 0 0 18.431 4.235 41.97 41.97 0 0 0 18.431-4.235c14.039-6.841 23.711-21.251 23.711-37.907 0-3.877-.523-7.632-1.503-11.198-14.694-4.254-26.361-5.371-40.639-5.371-14.274 0-25.944 1.116-40.637 5.367zm339.033-6.514v35.218c0 9.927-4.197 19.449-11.668 26.469s-17.604 10.963-28.169 10.963h-14.719c-10.565 0-20.698-3.943-28.169-10.963s-11.668-16.542-11.668-26.469v-35.218a5 5 0 0 1 5-5h84.393a5 5 0 0 1 5 5zm-47.196 18.4c-8.514 0-15.426 6.912-15.426 15.425 0 8.514 6.912 15.425 15.426 15.425 8.513 0 15.425-6.911 15.425-15.425 0-8.513-6.912-15.425-15.425-15.425z" opacity="1" data-original="#a4d4ff" class=""></path><path fill="#1f4571" d="M47.664 437.291c-13.293-5.967-23.534-13.71-28.554-24.497-3.844-8.259-4.833-18.406-1.4-31.227l.001-.005c3.557-13.25 12.928-45.569 19.38-58.458 5.767-11.543 17.939-18.233 26.355-21.638-4.494-9.381-7.114-20.318-7.114-33.7 0-14.689 5.293-30.797 13.5-45.638V42.702c.004-16.054 13.018-29.068 29.072-29.071H465.32c16.054.003 29.068 13.017 29.071 29.071v328.659c0 16.071-13.028 29.1-29.1 29.1H254.22c-1.6 17.741-13.972 28.824-31.88 36.833v52.075a7 7 0 0 1-7 7H54.664a7 7 0 0 1-7-7zm23.099-123.786c-6.112 2.02-16.552 6.654-21.149 15.857l-.002.006c-6.157 12.297-14.984 43.175-18.379 55.821-2.383 8.903-2.099 15.963.57 21.698 2.98 6.404 8.656 11.05 15.861 14.884v-33.019c0-7.861 6.373-14.233 14.234-14.233h146.208c7.861 0 14.234 6.372 14.234 14.233v33.003c11.359-6.075 18.922-14.204 17.966-27.803-.192-2.719-.701-5.631-1.541-8.761l-.002-.007c-3.378-12.644-12.222-43.52-18.363-55.819-4.239-8.467-13.445-13.029-19.652-15.291-5.554 7.893-12.63 14.387-20.673 20.619-11.924 9.241-26.171 17.846-40.503 30.329a6.999 6.999 0 0 1-9.316-.107c-16.403-14.97-34.347-25.706-48.197-38.851-4.148-3.936-7.954-8.073-11.296-12.559zm-.301-41.158c1.398 24.075 13.863 38.037 29.577 50.848 10.857 8.852 23.202 17.169 35.038 27.302 12.946-10.61 25.615-18.495 36.423-26.87 15.525-12.031 26.825-25.185 28-51.268-5.601-2.339-10.685-4.317-15.396-5.987.008.362.012.724.012 1.087 0 27.125-21.998 49.142-49.142 49.142-27.143 0-49.141-22.017-49.141-49.142 0-.365.004-.729.012-1.092-4.708 1.668-9.787 3.644-15.383 5.98zm143.139-4.581c0 13.868-2.189 24.876-6.059 34.061 8.352 3.514 19.818 10.163 25.379 21.274l.003.006c6.435 12.888 15.824 45.212 19.363 58.456.45 1.68.824 3.312 1.126 4.898h211.878c8.34 0 15.1-6.761 15.1-15.1V104.447H83.832v96.951a132.394 132.394 0 0 1 8.807-9.82c13.958-14.051 29.677-22.806 42.335-22.806 12.652 0 28.368 8.754 42.323 22.806 19.858 19.994 36.304 50.297 36.304 76.188zm-15.061-10.917c-3.693-19.756-16.559-40.689-31.176-55.405-10.853-10.927-22.551-18.672-32.39-18.672-9.844 0-21.547 7.744-32.402 18.672-14.62 14.717-27.487 35.649-31.179 55.405 26.905-10.681 42.521-12.959 63.581-12.959 21.061 0 36.664 2.278 63.566 12.959zM480.391 90.447V42.709c-.011-8.323-6.755-15.067-15.078-15.078H98.91c-8.322.011-15.066 6.755-15.078 15.078v47.738zM169.682 261.909c-12.148-3.134-22.419-4.019-34.708-4.019-12.285 0-22.559.884-34.706 4.017a35.402 35.402 0 0 0-.435 5.552c0 19.398 15.731 35.142 35.141 35.142 19.411 0 35.142-15.744 35.142-35.142 0-1.888-.148-3.742-.434-5.55zm135.52-39.524c3.863.052 6.956 3.231 6.904 7.094s-3.231 6.957-7.094 6.905l-22.995-.311a7.004 7.004 0 0 1-6.905-7.094 7.004 7.004 0 0 1 7.094-6.905zm123.306 15.358h4.862a7 7 0 0 1 7 7v40.218c0 11.835-4.968 23.201-13.874 31.57-8.746 8.217-20.596 12.862-32.963 12.862h-14.719c-12.367 0-24.217-4.645-32.962-12.862-8.907-8.369-13.875-19.735-13.875-31.57v-40.218a7 7 0 0 1 7-7h75.531v-9.854c0-5.817-2.39-11.391-6.617-15.504-4.297-4.182-10.131-6.517-16.208-6.517h-11.019c-6.077 0-11.911 2.335-16.208 6.517a22.067 22.067 0 0 0-4.062 5.382 7.003 7.003 0 0 1-9.478 2.859 7.004 7.004 0 0 1-2.859-9.478 36.068 36.068 0 0 1 6.636-8.797c6.889-6.704 16.228-10.483 25.971-10.483h11.019c9.743 0 19.082 3.779 25.971 10.483 6.959 6.772 10.854 15.962 10.854 25.538zm-2.138 14h-80.393v33.218c0 8.02 3.426 15.696 9.461 21.367 6.197 5.823 14.613 9.065 23.376 9.065h14.719c8.763 0 17.179-3.242 23.376-9.065 6.035-5.671 9.461-13.347 9.461-21.367zm-40.196 12.838c10.479 0 18.987 8.508 18.987 18.987s-8.508 18.987-18.987 18.987c-10.48 0-18.987-8.508-18.987-18.987s8.507-18.987 18.987-18.987zm0 14a4.99 4.99 0 0 0-4.987 4.987 4.989 4.989 0 0 0 4.987 4.987 4.99 4.99 0 0 0 4.987-4.987 4.99 4.99 0 0 0-4.987-4.987zm-32.115-89.935c-.053 3.863-3.231 6.957-7.094 6.905s-6.957-3.231-6.905-7.094l.311-22.995c.052-3.863 3.231-6.957 7.094-6.905s6.957 3.231 6.905 7.094zm-31.416 6.751a7.005 7.005 0 0 1-.134 9.899 7.005 7.005 0 0 1-9.899-.134l-16.04-16.48a7.003 7.003 0 0 1 .134-9.899 7.005 7.005 0 0 1 9.899.134zm53.692-147.898c6.373 0 11.548 5.174 11.548 11.548s-5.175 11.549-11.548 11.549c-6.374 0-11.549-5.175-11.549-11.549s5.175-11.548 11.549-11.548zm67.752 0c6.374 0 11.548 5.174 11.548 11.548s-5.174 11.549-11.548 11.549-11.548-5.175-11.548-11.549 5.174-11.548 11.548-11.548zm-33.876 0c6.374 0 11.548 5.174 11.548 11.548s-5.174 11.549-11.548 11.549-11.548-5.175-11.548-11.549 5.174-11.548 11.548-11.548zM208.34 388.752a.233.233 0 0 0-.234-.233H61.898a.233.233 0 0 0-.234.233v93.617H208.34zm-73.338 67.739c-11.616 0-21.047-9.431-21.047-21.047s9.431-21.047 21.047-21.047 21.047 9.431 21.047 21.047c0 11.615-9.428 21.045-21.042 21.047zm.003-14c3.888-.001 7.044-3.158 7.044-7.047s-3.157-7.047-7.047-7.047a7.05 7.05 0 0 0-7.047 7.047 7.05 7.05 0 0 0 7.047 7.047z" opacity="1" data-original="#1f4571" class=""></path></g></svg>