<svg xmlns="http://www.w3.org/2000/svg" version="1.1" xmlns:xlink="http://www.w3.org/1999/xlink" width="512" height="512" x="0" y="0" viewBox="0 0 512 512" style="enable-background:new 0 0 512 512" xml:space="preserve" class=""><g transform="matrix(0.9700000000000001,0,0,0.9700000000000001,7.679999999999978,7.679999999999978)"><path d="M59.733 34.133H51.2c-4.713 0-8.533 3.82-8.533 8.533S46.487 51.2 51.2 51.2h8.533c4.713 0 8.533-3.82 8.533-8.533s-3.82-8.534-8.533-8.534zM102.4 34.133h-8.533a8.533 8.533 0 0 0 0 17.066h8.533c4.713 0 8.533-3.82 8.533-8.533s-3.82-8.533-8.533-8.533zM145.067 34.133h-8.533c-4.713 0-8.533 3.82-8.533 8.533s3.82 8.533 8.533 8.533h8.533a8.533 8.533 0 0 0 0-17.066zM409.6 34.133H179.2c-4.713 0-8.533 3.82-8.533 8.533s3.82 8.533 8.533 8.533h230.4c4.713 0 8.533-3.82 8.533-8.533s-3.82-8.533-8.533-8.533z" fill="#7b68ee" opacity="1" data-original="#000000" class=""></path><path d="M494.933 307.2H486.4v-42.667a93.424 93.424 0 0 0-25.6-64.222V42.667C460.772 19.114 441.686.028 418.133 0H42.667C19.114.028.028 19.114 0 42.667V384c.028 23.552 19.114 42.638 42.667 42.667h230.4v25.6c.038 32.974 26.759 59.696 59.733 59.733h119.467c32.974-.038 59.696-26.759 59.733-59.733v-128c0-9.426-7.641-17.067-17.067-17.067zm-25.6-42.667V307.2h-153.6v-42.667c0-42.415 34.385-76.8 76.8-76.8s76.8 34.385 76.8 76.8zM17.067 42.667c0-14.138 11.462-25.6 25.6-25.6h375.467c14.138 0 25.6 11.462 25.6 25.6v25.6H17.067v-25.6zm256 281.6V409.6h-230.4c-14.138 0-25.6-11.462-25.6-25.6V85.333h426.667v100.625c-28.829-18.858-65.678-20.386-95.969-3.979s-49.143 48.105-49.098 82.554V307.2h-8.533c-9.426 0-17.067 7.641-17.067 17.067zm221.866 17.066h-25.6c-4.713 0-8.533 3.82-8.533 8.533s3.82 8.533 8.533 8.533h25.6v17.067h-25.6c-4.713 0-8.533 3.82-8.533 8.533s3.82 8.533 8.533 8.533h25.6V409.6h-25.6c-4.713 0-8.533 3.82-8.533 8.533s3.82 8.533 8.533 8.533h25.6v17.067h-25.6a8.533 8.533 0 0 0 0 17.066h24.747c-4.083 19.852-21.546 34.108-41.813 34.133H332.8c-20.267-.026-37.731-14.281-41.813-34.133h24.747a8.533 8.533 0 0 0 0-17.066h-25.6v-17.067h25.6c4.713 0 8.533-3.82 8.533-8.533s-3.82-8.533-8.533-8.533h-25.6v-17.067h25.6c4.713 0 8.533-3.82 8.533-8.533s-3.82-8.533-8.533-8.533h-25.6V358.4h25.6c4.713 0 8.533-3.82 8.533-8.533s-3.82-8.533-8.533-8.533h-25.6v-17.067h204.8v17.066z" fill="#7b68ee" opacity="1" data-original="#000000" class=""></path><path d="M384 416.563V435.2a8.533 8.533 0 0 0 17.066 0v-18.637c11.747-4.137 18.796-16.144 16.686-28.418-2.11-12.274-12.765-21.236-25.219-21.212-12.454-.024-23.109 8.939-25.219 21.212-2.11 12.274 4.939 24.281 16.686 28.418zM392.533 384a8.533 8.533 0 1 1 0 17.066 8.533 8.533 0 0 1 0-17.066zM145.067 170.667a8.533 8.533 0 0 0-8.533 8.533v25.6H68.267v-68.267H102.4c4.713 0 8.533-3.82 8.533-8.533s-3.82-8.533-8.533-8.533H68.267c-9.426 0-17.067 7.641-17.067 17.067V204.8c0 9.426 7.641 17.067 17.067 17.067h68.267c9.426 0 17.067-7.641 17.067-17.067v-25.6a8.535 8.535 0 0 0-8.534-8.533z" fill="#7b68ee" opacity="1" data-original="#000000" class=""></path><path d="M91.366 156.1a8.533 8.533 0 0 0-11.962.104 8.533 8.533 0 0 0-.104 11.962l17.067 17.067c1.6 1.6 3.77 2.5 6.033 2.5h.384a8.535 8.535 0 0 0 6.17-3.055l42.667-51.2a8.536 8.536 0 1 0-13.108-10.94L101.82 166.57 91.366 156.1zM145.067 315.733a8.533 8.533 0 0 0-8.533 8.533v25.6H68.267V281.6H102.4a8.533 8.533 0 0 0 0-17.066H68.267c-9.426 0-17.067 7.641-17.067 17.067v68.267c0 9.426 7.641 17.067 17.067 17.067h68.267c9.426 0 17.067-7.641 17.067-17.067v-25.6a8.536 8.536 0 0 0-8.534-8.535z" fill="#7b68ee" opacity="1" data-original="#000000" class=""></path><path d="M91.366 301.167a8.533 8.533 0 0 0-11.962.104 8.533 8.533 0 0 0-.104 11.962L96.367 330.3c1.6 1.6 3.77 2.5 6.033 2.5h.384a8.535 8.535 0 0 0 6.17-3.055l42.667-51.2a8.535 8.535 0 0 0-5.094-13.88 8.534 8.534 0 0 0-8.014 2.941l-36.693 44.032-10.454-10.471zM187.733 145.067H256c4.713 0 8.533-3.82 8.533-8.533S260.713 128 256 128h-68.267a8.534 8.534 0 0 0 0 17.067zM307.2 179.2a8.533 8.533 0 0 0-8.533-8.533H187.733c-4.713 0-8.533 3.82-8.533 8.533s3.82 8.533 8.533 8.533h110.933a8.533 8.533 0 0 0 8.534-8.533zM256 273.067h-68.267a8.533 8.533 0 0 0 0 17.066H256c4.713 0 8.533-3.82 8.533-8.533s-3.82-8.533-8.533-8.533zM247.467 315.733h-59.733c-4.713 0-8.533 3.82-8.533 8.533s3.82 8.533 8.533 8.533h59.733c4.713 0 8.533-3.82 8.533-8.533s-3.82-8.533-8.533-8.533z" fill="#7b68ee" opacity="1" data-original="#000000" class=""></path></g></svg>