<svg xmlns="http://www.w3.org/2000/svg" version="1.1" xmlns:xlink="http://www.w3.org/1999/xlink" width="512" height="512" x="0" y="0" viewBox="0 0 510 510" style="enable-background:new 0 0 512 512" xml:space="preserve" fill-rule="evenodd" class=""><g><path fill="#a4d4ff" d="M196.037 324.006H36.173c-11.693 0-21.173-9.48-21.173-21.173V36.173a21.17 21.17 0 0 1 6.202-14.971A21.17 21.17 0 0 1 36.173 15h154.822l54.324 53.981 166.739-1.016a21.173 21.173 0 0 1 21.302 21.173v89.118c-15.687-6.758-29.829-15.219-42.067-23.959a6.897 6.897 0 0 0-4.01-1.285h-83.53a6.896 6.896 0 0 0-4.009 1.285c-25.348 18.102-58.864 35.008-97.353 38.06a6.899 6.899 0 0 0-6.354 6.877v124.578z" opacity="1" data-original="#a4d4ff" class=""></path><path fill="#a4d4ff" d="M345.518 466.743c-57.773-18.082-122.077-79.653-122.077-142.931V217.2c31.164-5.678 60.486-18.973 86.747-36.765h70.68c26.242 17.792 55.564 31.087 86.728 36.765v106.612c0 63.297-64.304 124.849-122.078 142.931zm-31.32-174.057h-30.925a5.001 5.001 0 0 0-5 5v52.64a4.996 4.996 0 0 0 5 5h30.925v30.926a4.999 4.999 0 0 0 5 5h52.64a5.001 5.001 0 0 0 5-5v-30.926h30.926a5.001 5.001 0 0 0 5-5v-52.64a5 5 0 0 0-5-5h-30.926V261.76a4.998 4.998 0 0 0-5-5h-52.64a4.999 4.999 0 0 0-5 5z" opacity="1" data-original="#a4d4ff" class=""></path><path fill="#1f4571" d="M189.233 331.006H36.173C20.614 331.006 8 318.392 8 302.833V36.173a28.17 28.17 0 0 1 8.252-19.921A28.17 28.17 0 0 1 36.173 8h154.822c1.849 0 3.622.731 4.934 2.035l52.259 51.928 163.827-.998a28.171 28.171 0 0 1 28.345 28.173v84.461c15.003 6.041 31.388 10.396 48.839 11.78 7.228.573 12.801 6.605 12.801 13.855v124.578c0 43.783-21.805 84.254-52.327 115.819-29.9 30.92-68.015 53.168-100.554 61.895a13.905 13.905 0 0 1-7.202-.001c-32.528-8.726-70.644-30.974-100.545-61.894-28.847-29.828-49.91-67.611-52.139-108.625zM426.36 167.308v-78.17a14.174 14.174 0 0 0-14.26-14.173l-166.738 1.016a7 7 0 0 1-4.977-2.035L188.108 22H36.173A14.173 14.173 0 0 0 22 36.173v266.66c0 7.827 6.346 14.173 14.173 14.173h152.864V199.234c0-7.25 5.573-13.282 12.801-13.855 37.111-2.943 69.397-19.324 93.837-36.778a13.9 13.9 0 0 1 8.078-2.589h83.53c2.897 0 5.721.905 8.078 2.589 9.262 6.614 19.649 13.074 30.999 18.707zm-223.323 32.019v124.485c0 40.169 20.392 77.127 48.398 106.087 28.003 28.956 63.618 49.918 94.083 58.097 30.475-8.179 66.09-29.141 94.091-58.097C467.612 400.939 488 363.981 488 323.812V199.327c-39.814-3.179-74.518-20.586-100.749-39.315h-83.465c-26.231 18.729-60.935 36.136-100.749 39.315zm140.391 274.097c-35.947-11.251-74.362-38.696-99.319-73.058-16.943-23.33-27.668-49.823-27.668-76.554V217.2a7 7 0 0 1 5.745-6.886c30.209-5.505 58.619-18.427 84.076-35.674a6.998 6.998 0 0 1 3.926-1.205h70.68c1.401 0 2.769.421 3.929 1.207 25.436 17.245 53.845 30.167 84.054 35.672a7 7 0 0 1 5.745 6.886v106.612c0 26.739-10.725 53.233-27.669 76.562-24.956 34.361-63.371 61.799-99.318 73.05a6.999 6.999 0 0 1-4.181 0zm2.091-14.034c32.77-10.844 67.389-36 90.081-67.243 15.144-20.851 24.996-44.436 24.996-68.335V222.953c-29.278-6.222-56.903-18.873-81.862-35.518h-66.413c-24.977 16.645-52.602 29.296-81.88 35.518v100.859c0 23.892 9.852 47.475 24.996 68.327 22.692 31.245 57.311 56.407 90.082 67.251zm-38.321-173.704V256.76a7 7 0 0 1 7-7h62.64a7 7 0 0 1 7 7v28.926h28.926a7 7 0 0 1 7 7v62.64a7 7 0 0 1-7 7h-28.926v28.926a7 7 0 0 1-7 7h-62.64a7 7 0 0 1-7-7v-28.926h-28.925a7 7 0 0 1-7-7v-62.64a7 7 0 0 1 7-7zm7 14h-28.925v48.64h28.925a7 7 0 0 1 7 7v28.926h48.64v-28.926a7 7 0 0 1 7-7h28.926v-48.64h-28.926a7 7 0 0 1-7-7V263.76h-48.64v28.926a7 7 0 0 1-7 7z" opacity="1" data-original="#1f4571" class=""></path></g></svg>