<svg xmlns="http://www.w3.org/2000/svg" version="1.1" xmlns:xlink="http://www.w3.org/1999/xlink" width="512" height="512" x="0" y="0" viewBox="0 0 512 512" style="enable-background:new 0 0 512 512" xml:space="preserve" class=""><g transform="matrix(1.02,0,0,1.02,-5.120009813308684,-5.12000427246096)"><path d="M373.325 229.708c-1.368 0-2.711.084-4.064.133 7.341-17.963 11.32-37.141 11.32-56.784 0-92.083-83.993-166.997-187.237-166.997C90.077 6.06 6.06 80.975 6.06 173.057c0 39.425 15.669 77.675 44.12 107.702a7.28 7.28 0 0 0 10.569-10.015C34.872 243.433 20.62 208.74 20.62 173.057c0-84.054 77.485-152.437 172.724-152.437 95.216 0 172.677 68.383 172.677 152.437 0 58.174-38.418 112.124-97.855 137.432-12.105 5.107-52.162 43.428-72.556 63.39-7.631-48.153-12.811-48.579-17.849-48.989-32.631-2.592-63.622-13.294-89.618-30.944a7.283 7.283 0 0 0-10.114 1.931 7.281 7.281 0 0 0 1.934 10.112c27.195 18.467 59.4 29.887 93.31 33.122 2.825 7.54 7.223 31.081 10.048 51.032a7.283 7.283 0 0 0 12.346 4.138c12.647-12.593 29.901-29.261 45.154-43.252 1.205 44.385 30.553 85.086 75.574 104.232 5.346 2.282 32.058 26.984 53.741 48.56a7.276 7.276 0 0 0 7.446 1.742 7.29 7.29 0 0 0 4.896-5.879c1.801-12.688 4.588-27.728 6.46-33.79 66.968-6.969 117.003-56.978 117.003-117.688-.001-65.34-59.491-118.498-132.616-118.498zm10.673 222.017c-4.697.37-8.522.671-13.763 31.771-15.484-15.076-39.968-38.157-48.143-41.634-40.593-17.263-66.826-54.027-66.826-93.656 0-3.628.286-7.195.708-10.726 8.298-7.175 14.844-12.306 17.875-13.585 39.255-16.716 70.015-45.055 88.245-78.993 3.698-.361 7.424-.635 11.232-.635 65.096 0 118.055 46.627 118.055 103.938-.001 53.296-47.173 98.769-107.383 103.52z" fill="#7b68ee" opacity="1" data-original="#000000" class=""></path><path d="M87.086 148.907c-7.659 0-13.891 6.23-13.891 13.889v28.332c0 7.659 6.232 13.891 13.891 13.891h10.071a99.357 99.357 0 0 0 8.332 20.107l-7.123 7.123c-5.417 5.415-5.417 14.23 0 19.645L118.4 271.93c5.422 5.412 14.233 5.405 19.645-.002l7.119-7.121a99.438 99.438 0 0 0 20.114 8.332v10.069c0 7.659 6.228 13.889 13.887 13.889h28.332c7.659 0 13.891-6.23 13.891-13.889v-10.071a99.255 99.255 0 0 0 20.114-8.33l7.119 7.123c5.422 5.412 14.233 5.405 19.645-.002l20.038-20.038c5.403-5.412 5.403-14.223 0-19.636 0-.002-.005-.005-.005-.005l-7.123-7.123a99.642 99.642 0 0 0 8.332-20.107h10.071c7.659 0 13.887-6.232 13.887-13.891v-28.332c0-7.659-6.228-13.889-13.887-13.889h-10.071a99.423 99.423 0 0 0-8.332-20.112l7.128-7.123c5.408-5.415 5.408-14.223-.005-19.64l-20.034-20.034c-5.412-5.417-14.233-5.422-19.645 0l-7.123 7.121a99.26 99.26 0 0 0-20.109-8.327V70.718c0-7.659-6.232-13.891-13.891-13.891h-28.332c-7.659 0-13.887 6.232-13.887 13.891v10.074c-7 2.033-13.73 4.82-20.114 8.327l-7.119-7.121c-5.412-5.417-14.233-5.422-19.645 0L98.366 102.03a13.793 13.793 0 0 0-4.071 9.825c0 3.711 1.446 7.199 4.071 9.82l7.119 7.121a99.451 99.451 0 0 0-8.327 20.112H87.086zm22.802 8.899a84.87 84.87 0 0 1 10.891-26.309 7.275 7.275 0 0 0-1.019-9.017l-10.626-10.628 19.086-19.088 10.631 10.631a7.283 7.283 0 0 0 9.019 1.019 84.943 84.943 0 0 1 26.309-10.896 7.28 7.28 0 0 0 5.659-7.097V71.387h26.991V86.42a7.28 7.28 0 0 0 5.659 7.097 84.88 84.88 0 0 1 26.304 10.896 7.283 7.283 0 0 0 9.019-1.019l10.631-10.631 19.09 19.088-10.631 10.626a7.282 7.282 0 0 0-1.019 9.022 84.91 84.91 0 0 1 10.901 26.309 7.278 7.278 0 0 0 7.095 5.659h15.029v26.994h-15.029a7.276 7.276 0 0 0-7.095 5.657 85.126 85.126 0 0 1-10.901 26.309 7.275 7.275 0 0 0 1.019 9.017l10.631 10.631-19.086 19.09-10.631-10.631a7.278 7.278 0 0 0-9.019-1.019 84.901 84.901 0 0 1-26.309 10.898 7.28 7.28 0 0 0-5.659 7.097v15.029h-26.991V267.51a7.277 7.277 0 0 0-5.659-7.097 84.913 84.913 0 0 1-26.309-10.898 7.279 7.279 0 0 0-9.019 1.019l-10.631 10.631-19.086-19.09 10.631-10.631a7.278 7.278 0 0 0 1.019-9.019 84.884 84.884 0 0 1-10.901-26.306 7.276 7.276 0 0 0-7.095-5.657H87.754v-26.994h15.034a7.285 7.285 0 0 0 7.1-5.662z" fill="#7b68ee" opacity="1" data-original="#000000" class=""></path><path d="M232.217 215.847c21.458-21.458 21.541-56.228 0-77.77-21.437-21.434-56.324-21.444-77.77 0-10.389 10.389-16.114 24.2-16.114 38.885 0 14.688 5.725 28.496 16.114 38.885 21.442 21.441 56.329 21.442 77.77 0zm-67.475-67.475c15.763-15.763 41.418-15.764 57.181 0 15.81 15.81 15.81 41.372 0 57.181-15.763 15.768-41.418 15.763-57.181 0-15.81-15.81-15.81-41.371 0-57.181zM441.815 318.961h-137.15a7.28 7.28 0 0 0 0 14.56h137.15a7.28 7.28 0 0 0 0-14.56zM350.092 368.664h-45.428a7.28 7.28 0 0 0 0 14.56h45.428a7.28 7.28 0 0 0 0-14.56zM441.815 368.664H373.24a7.28 7.28 0 0 0 0 14.56h68.575a7.28 7.28 0 0 0 0-14.56z" fill="#7b68ee" opacity="1" data-original="#000000" class=""></path></g></svg>