<svg xmlns="http://www.w3.org/2000/svg" version="1.1" xmlns:xlink="http://www.w3.org/1999/xlink" width="512" height="512" x="0" y="0" viewBox="0 0 64 64" style="enable-background:new 0 0 512 512" xml:space="preserve" fill-rule="evenodd" class=""><g><path d="M38.67 9.5A5.002 5.002 0 0 0 43 17c2.76 0 5-2.24 5-5 0-4.968-4.033-9-9-9a8.984 8.984 0 0 0-7 3.345A8.984 8.984 0 0 0 25 3c-4.967 0-9 4.033-9 9 0 2.76 2.24 5 5 5a5.002 5.002 0 0 0 4.33-7.5 1 1 0 0 0-1.731 1.002A3.001 3.001 0 0 1 21 15c-1.656 0-3-1.345-3-3 0-3.864 3.137-7 7-7a7.002 7.002 0 0 1 6.126 3.611 1 1 0 0 0 1.749 0A7.002 7.002 0 0 1 39 5c3.864 0 7 3.137 7 7a3.001 3.001 0 1 1-5.599-1.499 1 1 0 0 0-1.73-1.002z" fill="#7b68ee" opacity="1" data-original="#000000" class=""></path><path d="M17.399 10.665A8.969 8.969 0 0 0 14 10c-4.967 0-9 4.033-9 9s4.033 9 9 9c2.76 0 5-2.24 5-5a5.002 5.002 0 0 0-7.422-4.374 1 1 0 0 0 .97 1.749A3.001 3.001 0 0 1 17 23c0 1.655-1.344 3-3 3-3.863 0-7-3.137-7-7a7.004 7.004 0 0 1 9.643-6.484c.51.209 1.267-1.643.756-1.852zM47.358 12.517A7.003 7.003 0 0 1 57 19c0 3.864-3.137 7-7 7-1.656 0-3-1.344-3-3a3.001 3.001 0 0 1 4.45-2.625 1 1 0 0 0 .971-1.749A5.002 5.002 0 0 0 45 23c0 2.76 2.24 5 5 5 4.967 0 9-4.032 9-9s-4.033-9-9-9c-1.202 0-2.35.237-3.399.665-.51.21.246 2.06.757 1.852zM21 55c-1.656 0-3 1.345-3 3 0 1.656 1.344 3 3 3s3-1.344 3-3c0-1.655-1.344-3-3-3zm0 2a1 1 0 1 1 0 2.002A1 1 0 0 1 21 57zM14 48c-1.656 0-3 1.345-3 3 0 1.656 1.344 3 3 3s3-1.344 3-3c0-1.655-1.344-3-3-3zm0 2a1 1 0 1 1 0 2.002A1 1 0 0 1 14 50zM8 41c-1.656 0-3 1.345-3 3 0 1.656 1.344 3 3 3s3-1.344 3-3c0-1.655-1.344-3-3-3zm0 2a1 1 0 1 1 0 2.002A1 1 0 0 1 8 43zM43 55c-1.656 0-3 1.345-3 3 0 1.656 1.344 3 3 3s3-1.344 3-3c0-1.655-1.344-3-3-3zm0 2a1 1 0 1 1 0 2.002A1 1 0 0 1 43 57zM50 48c-1.655 0-3 1.345-3 3 0 1.656 1.345 3 3 3s3-1.344 3-3c0-1.655-1.344-3-3-3zm0 2a1 1 0 1 1 0 2.002A1 1 0 0 1 50 50zM56 41c-1.655 0-3 1.345-3 3 0 1.656 1.345 3 3 3s3-1.344 3-3c0-1.655-1.344-3-3-3zm0 2a1 1 0 1 1 0 2.002A1 1 0 0 1 56 43zM32 55c-1.656 0-3 1.345-3 3 0 1.656 1.344 3 3 3s3-1.344 3-3c0-1.655-1.344-3-3-3zm0 2a1 1 0 1 1 0 2.002A1 1 0 0 1 32 57zM41 26c0-1.656-1.344-3-3-3H26c-1.655 0-3 1.344-3 3v12c0 1.657 1.345 3 3 3h12c1.656 0 3-1.343 3-3zm-2 0v12c0 .553-.448 1-1 1H26a1 1 0 0 1-1-1V26a1 1 0 0 1 1-1h12a1 1 0 0 1 1 1z" fill="#7b68ee" opacity="1" data-original="#000000" class=""></path><path d="M36 29a1 1 0 0 0-1-1h-6a1 1 0 0 0-1 1v6a1 1 0 0 0 1 1h6a1 1 0 0 0 1-1zm-2 1v4h-4v-4zM7.015 22.668a7.002 7.002 0 0 0 2.986 13.333H16a1.001 1.001 0 1 0 0-2h-5.998A5.002 5.002 0 0 1 5 29a5.006 5.006 0 0 1 2.871-4.525c.498-.235-.357-2.044-.855-1.808zM48.002 36H54c3.864 0 7-3.136 7-7a7.002 7.002 0 0 0-4.015-6.332c-.498-.236-1.353 1.573-.854 1.808A5.006 5.006 0 0 1 59 29c0 2.76-2.24 5-5.001 5h-5.998a1.001 1.001 0 1 0 0 2zM31 40v4a1 1 0 0 0 2 0v-4zM31 48v8h2v-8a1 1 0 0 0-2 0zM36 49h6v7H44v-8a1 1 0 0 0-1-1h-7a1 1 0 1 0 0 2zM48 40h7v2h2v-3a1 1 0 0 0-1-1h-8a1 1 0 0 0 0 2zM16 38H8a1 1 0 0 0-1 1v3h2v-2h7a1 1 0 0 0 0-2zM43 39.5V44a1 1 0 0 0 1 1h5.001v4h2v-5A1 1 0 0 0 50 43h-5v-3.5a1 1 0 0 0-2 0zM19 39.5V43h-5a1 1 0 0 0-1 1v5h2v-4h5a1 1 0 0 0 1-1v-4.5a1 1 0 0 0-2 0zM28 47h-7a1 1 0 0 0-1 1v8H22v-7h6a1 1 0 1 0 0-2zM24 31h-4a1 1 0 0 0 0 2h4zM31 20v4h2v-4a1 1 0 0 0-2 0zM31 8v8a1 1 0 0 0 2 0V8a1 1 0 0 0-2 0z" fill="#7b68ee" opacity="1" data-original="#000000" class=""></path><g stroke-width=".378"><path d="M44 31h-4v2h4a1 1 0 0 0 0-2zM27 40v4a1 1 0 0 0 2 0v-4zM24 27h-4a1 1 0 0 0 0 2h4zM27 20v4h2v-4a1 1 0 0 0-2 0zM44 27h-4v2h4a1 1 0 0 0 0-2zM35 40v4a1 1 0 0 0 2 0v-4zM24 35h-4a1 1 0 0 0 0 2h4zM35 20v4h2v-4a1 1 0 0 0-2 0zM44 35h-4v2h4a1 1 0 0 0 0-2z" fill="#7b68ee" opacity="1" data-original="#000000" class=""></path></g><circle cx="14" cy="58.001" r="1" fill="#7b68ee" opacity="1" data-original="#000000" class=""></circle><circle cx="50" cy="58.001" r="1" fill="#7b68ee" opacity="1" data-original="#000000" class=""></circle><circle cx="14" cy="7" r="1" fill="#7b68ee" opacity="1" data-original="#000000" class=""></circle><circle cx="50" cy="7" r="1" fill="#7b68ee" opacity="1" data-original="#000000" class=""></circle></g></svg>